name rise49.25peak52.1432fall72.8391.mot
datacolumns 19
datarows 22
range 12.499954 12.534950
endheader
time	ground_force1_vx	ground_force1_vy	ground_force1_vz	ground_force1_px	ground_force1_py	ground_force1_pz	ground_force2_vx	ground_force2_vy	ground_force2_vz	ground_force2_px	ground_force2_py	ground_force2_pz	ground_torque1_x	ground_torque1_y	ground_torque1_z	ground_torque2_x	ground_torque2_y	ground_torque2_z	
12.499954	9.764445	732.488414	32.200927	0.217080	0.000000	0.089378	0.000000	0.000000	0.000000	0.000000	0.000000	0.000000	0.000000	12.862234	0.000000	0.000000	0.000000	0.000000	
12.501619	9.223279	733.039336	32.131393	0.215907	0.000000	0.089324	0.000000	0.000000	0.000000	0.000000	0.000000	0.000000	0.000000	12.910215	0.000000	0.000000	0.000000	0.000000	
12.503281	8.677418	733.579529	32.064000	0.214744	0.000000	0.089271	0.000000	0.000000	0.000000	0.000000	0.000000	0.000000	0.000000	12.961230	0.000000	0.000000	0.000000	0.000000	
12.504947	8.127056	734.109252	31.998871	0.213592	0.000000	0.089217	0.000000	0.000000	0.000000	0.000000	0.000000	0.000000	0.000000	13.015262	0.000000	0.000000	0.000000	0.000000	
12.506620	7.572388	734.628858	31.936135	0.212452	0.000000	0.089162	0.000000	0.000000	0.000000	0.000000	0.000000	0.000000	0.000000	13.072285	0.000000	0.000000	0.000000	0.000000	
12.508283	7.013610	735.138801	31.875925	0.211324	0.000000	0.089108	0.000000	0.000000	0.000000	0.000000	0.000000	0.000000	0.000000	13.132267	0.000000	0.000000	0.000000	0.000000	
12.509954	6.450917	735.639627	31.818379	0.210209	0.000000	0.089053	0.000000	0.000000	0.000000	0.000000	0.000000	0.000000	0.000000	13.195170	0.000000	0.000000	0.000000	0.000000	
12.511620	5.884505	736.131977	31.763640	0.209108	0.000000	0.088997	0.000000	0.000000	0.000000	0.000000	0.000000	0.000000	0.000000	13.260944	0.000000	0.000000	0.000000	0.000000	
12.513284	5.314570	736.616581	31.711853	0.208020	0.000000	0.088941	0.000000	0.000000	0.000000	0.000000	0.000000	0.000000	0.000000	13.329536	0.000000	0.000000	0.000000	0.000000	
12.514954	4.741305	737.094253	31.663167	0.206946	0.000000	0.088885	0.000000	0.000000	0.000000	0.000000	0.000000	0.000000	0.000000	13.400883	0.000000	0.000000	0.000000	0.000000	
12.516622	4.164907	737.565892	31.617734	0.205887	0.000000	0.088828	0.000000	0.000000	0.000000	0.000000	0.000000	0.000000	0.000000	13.474916	0.000000	0.000000	0.000000	0.000000	
12.518288	3.585569	738.032475	31.575709	0.204841	0.000000	0.088770	0.000000	0.000000	0.000000	0.000000	0.000000	0.000000	0.000000	13.551557	0.000000	0.000000	0.000000	0.000000	
12.519952	3.003487	738.495050	31.537249	0.203809	0.000000	0.088712	0.000000	0.000000	0.000000	0.000000	0.000000	0.000000	0.000000	13.630723	0.000000	0.000000	0.000000	0.000000	
12.521617	2.418855	738.954736	31.502513	0.202791	0.000000	0.088654	0.000000	0.000000	0.000000	0.000000	0.000000	0.000000	0.000000	13.712322	0.000000	0.000000	0.000000	0.000000	
12.523288	1.831866	739.412714	31.471663	0.201785	0.000000	0.088595	0.000000	0.000000	0.000000	0.000000	0.000000	0.000000	0.000000	13.796257	0.000000	0.000000	0.000000	0.000000	
12.524954	1.242714	739.870224	31.444860	0.200792	0.000000	0.088536	0.000000	0.000000	0.000000	0.000000	0.000000	0.000000	0.000000	13.882424	0.000000	0.000000	0.000000	0.000000	
12.526619	0.651592	740.328554	31.422269	0.199811	0.000000	0.088476	0.000000	0.000000	0.000000	0.000000	0.000000	0.000000	0.000000	13.970713	0.000000	0.000000	0.000000	0.000000	
12.528285	0.058694	740.789042	31.404055	0.198840	0.000000	0.088416	0.000000	0.000000	0.000000	0.000000	0.000000	0.000000	0.000000	14.061009	0.000000	0.000000	0.000000	0.000000	
12.529948	-0.535788	741.253060	31.390383	0.197879	0.000000	0.088356	0.000000	0.000000	0.000000	0.000000	0.000000	0.000000	0.000000	14.153190	0.000000	0.000000	0.000000	0.000000	
12.531622	-1.131661	741.722015	31.381420	0.196928	0.000000	0.088296	0.000000	0.000000	0.000000	0.000000	0.000000	0.000000	0.000000	14.247132	0.000000	0.000000	0.000000	0.000000	
12.533281	-1.728732	742.197337	31.377334	0.195984	0.000000	0.088236	0.000000	0.000000	0.000000	0.000000	0.000000	0.000000	0.000000	14.342705	0.000000	0.000000	0.000000	0.000000	
12.534950	-2.326812	742.680474	31.378293	0.195047	0.000000	0.088175	0.000000	0.000000	0.000000	0.000000	0.000000	0.000000	0.000000	14.439775	0.000000	0.000000	0.000000	0.000000	
